<svg width="249" height="200" viewBox="0 0 249 200" fill="none" xmlns="http://www.w3.org/2000/svg">
<g id="Vector">
<path d="M224.607 178.144V48.7535L164.514 113.449L224.607 178.144Z" fill="#DAD1F4"/>
<path d="M104.42 178.144H224.607L164.514 113.449L104.42 178.144Z" fill="#DAD1F4"/>
<path d="M104.42 48.7535V178.144L164.514 113.449L104.42 48.7535Z" fill="#DAD1F4"/>
<path d="M224.607 48.7535H104.42L164.514 113.449L224.607 48.7535Z" fill="#DAD1F4"/>
<path d="M247 2H2V25.7858H81.625H247V2Z" fill="#8E7CBE"/>
<path d="M2 2H247M2 2V198H247V2M2 2V25.7858M247 2V25.7858M2 25.7858H247M2 25.7858H81.625M247 25.7858H81.625M81.625 194.898V25.7858M224.607 178.144H104.42M224.607 178.144V48.7535M224.607 178.144L164.514 113.449M104.42 178.144V48.7535M104.42 178.144L164.514 113.449M104.42 48.7535H224.607M104.42 48.7535L164.514 113.449M224.607 48.7535L164.514 113.449M21.076 133.43H46.0562M21.076 153.031H61.7852M21.076 172.632H46.0562M21.5219 46.2445H60.7219V100.554H21.5219V46.2445Z" stroke="#5457AF" stroke-width="2.5" stroke-miterlimit="10" stroke-linecap="round" stroke-linejoin="round"/>
</g>
</svg>
