<svg width="204" height="200" viewBox="0 0 204 200" fill="none" xmlns="http://www.w3.org/2000/svg">
<g id="Vector">
<path d="M2.00556 44H159.111L159.143 2H30.5714C14.7517 2 1.99385 14.4966 2 30L2.00556 44Z" fill="#8E7CBE"/>
<path d="M202 170V44H159.111H2.00556L2.05555 170.011C2.0617 185.514 14.7517 198 30.5714 198H173.429C189.248 198 202 185.503 202 170Z" fill="#E3DAFF"/>
<path d="M2 44H2.00556M202 44H159.111M202 44V30M202 44V170M30.5714 2H173.349M30.5714 2C14.7517 2 1.99385 14.4966 2 30L2.00556 44M30.5714 2H159.143M173.349 2C189.169 2 202 14.4966 202 30M173.349 2H159.143M202 30V170M202 170C202 185.503 189.248 198 173.429 198H30.5714C14.7517 198 2.0617 185.514 2.05555 170.011L2.00556 44M159.111 44.081L159.111 44M159.143 2L159.111 44M30.5714 170L59.1429 142L30.5714 114M73.4286 170H102M2.00556 44H159.111" stroke="#5457AF" stroke-width="3" stroke-linecap="round" stroke-linejoin="round"/>
</g>
</svg>
