<svg width="586" height="696" viewBox="0 0 586 696" fill="none" xmlns="http://www.w3.org/2000/svg">
<mask id="mask0_4340_2257" style="mask-type:alpha" maskUnits="userSpaceOnUse" x="25" y="84" width="923" height="506">
<g clip-path="url(#clip0_4340_2257)">
<path d="M156.265 84.5425C144.86 85.5744 133.672 88.6158 124.711 93.1778C105.703 102.845 92.5055 119.844 86.8572 141.731C84.5762 150.746 84.2504 155.851 83.3814 195.335C82.2952 248.015 81.6978 256.053 77.7332 268.924C73.497 282.665 67.0885 289.671 46.0706 303.737C35.6431 310.689 31.5155 314.599 28.8544 319.976C26.1389 325.515 25.3242 329.48 25.3242 337.083C25.3785 352.29 28.4742 356.906 46.505 369.126C60.0825 378.304 65.4592 382.866 69.804 388.949C75.3979 396.77 79.634 408.392 80.8832 419.362C81.7521 427.02 82.5125 446.463 83.3814 482.362C84.2504 517.88 84.5762 522.008 86.9116 531.295C93.2115 556.223 110.265 575.123 134.433 583.813C147.684 588.537 167.399 590.275 179.836 587.723C197.215 584.138 205.579 573.005 204.601 554.865C204.004 544.927 201.397 538.41 195.748 532.707C191.404 528.362 188.036 526.842 179.021 525.158C168.431 523.148 163.597 521.574 160.936 519.347C154.31 513.644 151.377 503.271 150.726 482.905C150.563 477.528 150.182 462.865 149.911 450.319C149.368 427.292 148.608 416.321 146.598 403.884C143.828 386.614 138.343 372.059 130.794 362.12C125.309 354.951 115.696 345.936 108.092 340.885C106.137 339.581 104.019 338.115 103.313 337.572L102.118 336.649L107.115 333.118C134.433 314.001 144.806 293.798 148.282 252.903C148.553 249.156 148.933 244.865 149.096 243.29C149.259 241.769 149.748 228.409 150.182 213.691C151.051 184.69 151.703 173.936 152.952 167.691C155.668 154.439 160.338 150.855 179.51 147.325C188.091 145.75 191.892 144.066 196.074 139.939C202.103 134.073 205.144 124.515 204.601 113.327C204.275 106.429 202.863 101.65 199.876 97.1424C195.966 91.3312 189.123 87.2037 180.324 85.4115C175.111 84.3796 163.108 83.9451 156.265 84.5425Z" fill="#6331D8"/>
<path d="M543.658 154.874L486.361 212.171H543.821H601.227V154.874C601.227 123.374 601.172 97.577 601.064 97.577C601.009 97.577 575.158 123.374 543.658 154.874Z" fill="#6331D8"/>
<path d="M294.646 155.145L237.621 212.171H295.081H352.486V155.145C352.486 123.754 352.323 98.1201 352.052 98.1201C351.835 98.1201 325.983 123.754 294.646 155.145Z" fill="#6331D8"/>
<path d="M359.004 155.146V212.171H416.138H473.326L416.301 155.146C384.964 123.755 359.221 98.1203 359.167 98.1203C359.058 98.1203 359.004 123.755 359.004 155.146Z" fill="#6331D8"/>
<path d="M504.284 234.547C551.642 282.285 600.466 331.11 600.792 331.11C601.064 331.11 601.227 305.313 601.227 273.813V216.516H543.821H486.361L504.284 234.547Z" fill="#6331D8"/>
<path d="M237.893 218.528C237.893 219.072 351.563 332.742 352.106 332.742C352.323 332.742 352.432 306.999 352.378 275.554L352.215 218.42L295.081 218.257C263.635 218.203 237.893 218.311 237.893 218.528Z" fill="#6331D8"/>
<path d="M359.004 275.551V333.011L416.301 275.714C447.8 244.215 473.598 218.363 473.598 218.309C473.598 218.2 447.8 218.146 416.301 218.146H359.004V275.551Z" fill="#6331D8"/>
<path d="M484.459 281.416V338.713H541.864H599.324L542.027 281.416C510.528 249.916 484.676 224.119 484.622 224.119C484.513 224.119 484.459 249.916 484.459 281.416Z" fill="#6331D8"/>
<path d="M420.918 282.5L363.621 339.796H421.081H478.486V282.5C478.486 251 478.432 225.203 478.323 225.203C478.269 225.203 452.418 251 420.918 282.5Z" fill="#6331D8"/>
<path d="M237.348 285.215V342.512H294.753H352.213L294.916 285.215C263.416 253.715 237.565 227.918 237.511 227.918C237.402 227.918 237.348 253.715 237.348 285.215Z" fill="#6331D8"/>
<path d="M413.858 396.118C441.121 423.544 466.864 449.396 470.992 453.578L478.487 461.181V403.721V346.316H421.353H364.219L413.858 396.118Z" fill="#6331D8"/>
<path d="M484.459 403.721V461.18L541.756 403.884C573.256 372.384 599.053 346.532 599.053 346.478C599.053 346.369 573.256 346.315 541.756 346.315H484.459V403.721Z" fill="#6331D8"/>
<path d="M293.289 405.238C324.789 436.737 350.64 462.534 350.695 462.534C350.803 462.534 350.857 436.737 350.857 405.238V347.941H293.452H235.992L293.289 405.238Z" fill="#6331D8"/>
<path d="M549.741 405.295L492.498 462.809L549.686 462.972C581.132 463.026 606.929 463.026 607.037 462.918C607.146 462.809 607.146 436.849 607.092 405.241L606.929 347.781L549.741 405.295Z" fill="#6331D8"/>
<path d="M356.832 405.781V463.078H414.238H471.697L414.4 405.781C382.901 374.282 357.049 348.484 356.995 348.484C356.886 348.484 356.832 374.282 356.832 405.781Z" fill="#6331D8"/>
<path d="M419.832 528.524C451.332 560.023 477.183 585.821 477.238 585.821C477.346 585.821 477.4 560.023 477.4 528.524V471.227H419.995H362.535L419.832 528.524Z" fill="#6331D8"/>
<path d="M486.631 528.631V586.091L543.928 528.794C575.427 497.294 601.225 471.443 601.225 471.389C601.225 471.28 575.427 471.226 543.928 471.226H486.631V528.631Z" fill="#6331D8"/>
</g>
</mask>
<g mask="url(#mask0_4340_2257)">
<rect x="-58.8457" y="21.1155" width="1131.92" height="712.692" fill="#A5A7E2"/>
</g>
<rect y="589" width="107" height="107" rx="53.5" fill="#5457AF"/>
<path d="M60.7084 638.498L63.3732 636.71C63.8083 636.475 64.1613 636.114 64.3849 635.673C64.6085 635.232 64.692 634.734 64.6241 634.244C64.5562 633.754 64.3402 633.297 64.0051 632.934C63.67 632.571 63.2319 632.319 62.7494 632.212L35.3301 624.33L43.2115 651.712C43.3188 652.194 43.5711 652.632 43.9345 652.967C44.2979 653.302 44.7549 653.518 45.2444 653.585C45.7339 653.653 46.2323 653.569 46.6729 653.346C47.1135 653.122 47.4752 652.769 47.7094 652.334M63.5933 660.67L70.3562 654.04C70.771 653.637 71.1009 653.156 71.3265 652.624C71.552 652.092 71.6688 651.52 71.6697 650.942C71.6706 650.364 71.5558 649.792 71.3319 649.259C71.1081 648.726 70.7797 648.244 70.3663 647.84C69.5232 647.014 68.3906 646.55 67.2104 646.548C66.0301 646.546 64.8958 647.005 64.0495 647.828L63.5973 648.272L63.1471 647.828C62.3041 647.002 61.1719 646.539 59.9922 646.537C58.8124 646.535 57.6785 646.993 56.8323 647.816C56.4174 648.218 56.0874 648.699 55.8616 649.231C55.6359 649.763 55.519 650.335 55.5178 650.913C55.5167 651.491 55.6314 652.063 55.8551 652.596C56.0787 653.129 56.4069 653.612 56.8202 654.016L63.5933 660.67Z" stroke="#F4F4F4" stroke-width="5.04717" stroke-linecap="round" stroke-linejoin="round"/>
<circle cx="237" cy="37" r="37" fill="#5457AF"/>
<path d="M240.373 20.054C240.765 20.1578 241.1 20.4116 241.303 20.7596C241.506 21.1076 241.562 21.5214 241.457 21.9098L233.347 51.8911C233.242 52.2798 232.985 52.6112 232.633 52.8123C232.281 53.0134 231.862 53.0678 231.47 52.9636C231.077 52.8593 230.743 52.6048 230.54 52.2562C230.337 51.9076 230.282 51.4934 230.387 51.1046L238.499 21.1234C238.551 20.931 238.641 20.7507 238.764 20.5928C238.886 20.4348 239.039 20.3023 239.213 20.2028C239.387 20.1033 239.58 20.0387 239.779 20.0129C239.978 19.987 240.181 20.0003 240.375 20.0519M244.993 26.2241C245.264 25.9252 245.644 25.7454 246.05 25.7242C246.455 25.7029 246.852 25.842 247.154 26.1108L250.7 29.2727C252.204 30.6111 253.45 31.723 254.307 32.7298C255.205 33.7911 255.846 34.9293 255.846 36.3364C255.846 37.7415 255.207 38.8797 254.307 39.939C253.45 40.9478 252.204 42.0597 250.7 43.3981L247.154 46.5599C246.852 46.8291 246.455 46.9685 246.049 46.9475C245.644 46.9264 245.263 46.7467 244.992 46.4477C244.72 46.1488 244.579 45.7552 244.6 45.3535C244.622 44.9518 244.803 44.575 245.105 44.3058L248.569 41.2187C250.177 39.7854 251.261 38.8129 251.964 37.9881C252.637 37.1936 252.784 36.7306 252.784 36.3344C252.784 35.9381 252.637 35.4772 251.964 34.6827C251.261 33.8558 250.177 32.8834 248.569 31.4521L245.105 28.365C244.955 28.2318 244.833 28.0707 244.747 27.8909C244.66 27.711 244.61 27.516 244.599 27.317C244.588 27.118 244.618 26.9188 244.685 26.7309C244.752 26.543 244.856 26.3701 244.991 26.222M226.741 28.365C227.043 28.0958 227.225 27.719 227.246 27.3173C227.267 26.9156 227.126 26.522 226.855 26.2231C226.583 25.9241 226.202 25.7444 225.797 25.7233C225.391 25.7023 224.994 25.8417 224.692 26.1108L221.146 29.2727C219.642 30.6111 218.396 31.723 217.539 32.7298C216.641 33.7911 216 34.9293 216 36.3364C216 37.7415 216.639 38.8797 217.539 39.939C218.396 40.9478 219.642 42.0597 221.146 43.3981L224.692 46.5599C224.994 46.8291 225.391 46.9685 225.797 46.9475C226.202 46.9264 226.583 46.7467 226.855 46.4477C227.126 46.1488 227.267 45.7552 227.246 45.3535C227.225 44.9518 227.043 44.575 226.741 44.3058L223.277 41.2187C221.669 39.7854 220.585 38.8129 219.883 37.9881C219.209 37.1936 219.062 36.7306 219.062 36.3344C219.062 35.9381 219.209 35.4772 219.883 34.6827C220.585 33.8558 221.669 32.8834 223.277 31.4521L226.741 28.365Z" fill="white"/>
<rect x="380" y="404" width="91" height="91" rx="45.5" fill="#5D5FB4"/>
<path d="M410.634 464.318L421.424 453.546M421.424 453.546C421.188 453.31 421.001 453.03 420.873 452.722C420.745 452.414 420.679 452.084 420.679 451.75C420.679 451.417 420.744 451.087 420.872 450.779C421 450.471 421.187 450.191 421.423 449.955C421.659 449.719 421.94 449.532 422.248 449.404C422.557 449.276 422.888 449.211 423.222 449.211C423.556 449.21 423.886 449.276 424.195 449.404C424.504 449.531 424.784 449.718 425.02 449.954C425.497 450.43 425.766 451.076 425.766 451.749C425.766 452.423 425.498 453.069 425.021 453.545C424.544 454.021 423.897 454.289 423.223 454.289C422.548 454.289 421.901 454.022 421.424 453.546ZM435.212 448.16L440.007 443.371C440.643 442.736 441 441.875 441 440.977C441 440.08 440.643 439.219 440.007 438.584L436.413 434.992C436.098 434.678 435.724 434.428 435.312 434.258C434.901 434.088 434.46 434 434.014 434C433.569 434 433.128 434.088 432.716 434.258C432.305 434.428 431.931 434.678 431.616 434.992L426.821 439.781M435.012 448.755L431.782 458.429C431.731 458.584 431.642 458.725 431.525 458.838C431.407 458.952 431.264 459.036 431.107 459.083L411.307 464.958C411.129 465.011 410.939 465.014 410.759 464.967C410.579 464.92 410.415 464.824 410.286 464.691C410.157 464.557 410.067 464.391 410.025 464.209C409.984 464.028 409.993 463.839 410.052 463.663L416.482 444.41C416.528 444.272 416.603 444.145 416.703 444.039C416.802 443.932 416.923 443.848 417.058 443.792L426.192 440.038C426.378 439.961 426.582 439.941 426.779 439.981C426.976 440.02 427.157 440.116 427.299 440.258L434.766 447.716C434.9 447.849 434.994 448.017 435.037 448.201C435.08 448.384 435.072 448.576 435.012 448.755Z" stroke="white" stroke-width="3" stroke-linecap="round" stroke-linejoin="round"/>
<defs>
<clipPath id="clip0_4340_2257">
<rect width="922.181" height="505.081" fill="white" transform="translate(25 84)"/>
</clipPath>
</defs>
</svg>
