<svg width="124" height="124" viewBox="0 0 124 124" fill="none" xmlns="http://www.w3.org/2000/svg">
<g id="Group 1448">
<circle id="Ellipse 5" cx="62" cy="62" r="59" fill="#B6B8FA" stroke="#5457AF" stroke-width="5"/>
<path id="Vector" fill-rule="evenodd" clip-rule="evenodd" d="M79.1797 79.1797H45.2266V45.2266H79.1797V79.1797ZM62.2599 62.5189L52.3224 70.8519C52.0532 71.0796 51.6444 70.8881 51.6444 70.5362V67.291C51.6452 67.2306 51.659 67.1712 51.6849 67.1167C51.7108 67.0622 51.7482 67.014 51.7945 66.9752L57.4775 62.2031L51.7945 57.4311C51.6961 57.3534 51.6444 57.2396 51.6444 57.1153V53.8701C51.6439 53.7914 51.6661 53.7142 51.7082 53.6476C51.7504 53.5811 51.8107 53.5281 51.8821 53.4948C51.9535 53.4616 52.0329 53.4495 52.111 53.4601C52.189 53.4707 52.2624 53.5034 52.3224 53.5544L62.2599 61.8822C62.4617 62.0479 62.4617 62.3532 62.2599 62.5189ZM62.7982 70.9502C62.586 70.9502 62.41 70.7639 62.41 70.5362V68.0518C62.41 67.8241 62.586 67.6377 62.7982 67.6377H72.3734C72.5856 67.6377 72.7615 67.8241 72.7615 68.0518V70.5362C72.7615 70.7639 72.5856 70.9502 72.3734 70.9502H62.7982Z" fill="#F4F4F4"/>
<g id="Vector_2">
<path fill-rule="evenodd" clip-rule="evenodd" d="M79.1797 79.1797H45.2266V45.2266H79.1797V79.1797ZM62.2599 62.5189L52.3224 70.8519C52.0532 71.0796 51.6444 70.8881 51.6444 70.5362V67.291C51.6452 67.2306 51.659 67.1712 51.6849 67.1167C51.7108 67.0622 51.7482 67.014 51.7945 66.9752L57.4775 62.2031L51.7945 57.4311C51.6961 57.3534 51.6444 57.2396 51.6444 57.1153V53.8701C51.6439 53.7914 51.6661 53.7142 51.7082 53.6476C51.7504 53.5811 51.8107 53.5281 51.8821 53.4948C51.9535 53.4616 52.0329 53.4495 52.111 53.4601C52.189 53.4707 52.2624 53.5034 52.3224 53.5544L62.2599 61.8822C62.4617 62.0479 62.4617 62.3532 62.2599 62.5189ZM62.7982 70.9502C62.586 70.9502 62.41 70.7639 62.41 70.5362V68.0518C62.41 67.8241 62.586 67.6377 62.7982 67.6377H72.3734C72.5856 67.6377 72.7615 67.8241 72.7615 68.0518V70.5362C72.7615 70.7639 72.5856 70.9502 72.3734 70.9502H62.7982Z" fill="#F4F4F4"/>
<path d="M62.41 70.5362C62.41 70.7639 62.586 70.9502 62.7982 70.9502H72.3734C72.5856 70.9502 72.7615 70.7639 72.7615 70.5362V68.0518C72.7615 67.8241 72.5856 67.6377 72.3734 67.6377H62.7982C62.586 67.6377 62.41 67.8241 62.41 68.0518V70.5362Z" fill="#5457AF"/>
<path d="M52.3224 70.8519L62.2599 62.5189C62.4617 62.3532 62.4617 62.0479 62.2599 61.8822L52.3224 53.5544C52.2624 53.5034 52.189 53.4707 52.111 53.4601C52.0329 53.4495 51.9535 53.4616 51.8821 53.4948C51.8107 53.5281 51.7504 53.5811 51.7082 53.6476C51.6661 53.7142 51.6439 53.7914 51.6444 53.8701V57.1153C51.6444 57.2396 51.6961 57.3534 51.7945 57.4311L57.4775 62.2031L51.7945 66.9752C51.7482 67.014 51.7108 67.0622 51.6849 67.1167C51.659 67.1712 51.6452 67.2306 51.6444 67.291V70.5362C51.6444 70.8881 52.0532 71.0796 52.3224 70.8519Z" fill="#5457AF"/>
<path fill-rule="evenodd" clip-rule="evenodd" d="M81.25 41.5H43.1563C42.2401 41.5 41.5 42.2401 41.5 43.1563V81.25C41.5 82.1661 42.2401 82.9063 43.1563 82.9063H81.25C82.1661 82.9063 82.9063 82.1661 82.9063 81.25V43.1563C82.9063 42.2401 82.1661 41.5 81.25 41.5ZM45.2266 79.1797H79.1797V45.2266H45.2266V79.1797Z" fill="#5457AF"/>
</g>
</g>
</svg>
