<svg width="124" height="123" viewBox="0 0 124 123" fill="none" xmlns="http://www.w3.org/2000/svg">
<circle cx="62" cy="61.5" r="59" fill="#B6B8FA" stroke="#5457AF" stroke-width="5"/>
<path d="M74.8709 48.6395C73.141 46.9038 71.0881 45.5237 68.8279 44.577C66.5097 43.603 64.0197 43.104 61.5052 43.1094H61.4189C56.356 43.1297 51.6181 45.1102 48.0736 48.6903C44.524 52.2704 42.5892 57.0235 42.6095 62.0864C42.6248 65.1485 43.3865 68.1903 44.8185 70.8766L45.047 71.3032V78.4532H52.197L52.6236 78.6817C55.3099 80.1137 58.3517 80.8754 61.4138 80.8907H61.5002C66.5275 80.8907 71.2502 78.9508 74.8099 75.4266C78.3849 71.8821 80.3705 67.1442 80.4009 62.0864C80.4111 59.5168 79.9185 57.0286 78.9334 54.6825C77.986 52.4226 76.606 50.3698 74.8709 48.6395ZM51.3439 64.4375C50.7061 64.4245 50.0987 64.162 49.6522 63.7063C49.2057 63.2506 48.9557 62.638 48.9557 62C48.9557 61.3621 49.2057 60.7495 49.6522 60.2938C50.0987 59.8381 50.7061 59.5756 51.3439 59.5625C51.9818 59.5756 52.5891 59.8381 53.0356 60.2938C53.4821 60.7495 53.7322 61.3621 53.7322 62C53.7322 62.638 53.4821 63.2506 53.0356 63.7063C52.5891 64.162 51.9818 64.4245 51.3439 64.4375ZM61.5002 64.4375C60.8623 64.4245 60.255 64.162 59.8085 63.7063C59.362 63.2506 59.1119 62.638 59.1119 62C59.1119 61.3621 59.362 60.7495 59.8085 60.2938C60.255 59.8381 60.8623 59.5756 61.5002 59.5625C62.138 59.5756 62.7453 59.8381 63.1918 60.2938C63.6383 60.7495 63.8884 61.3621 63.8884 62C63.8884 62.638 63.6383 63.2506 63.1918 63.7063C62.7453 64.162 62.138 64.4245 61.5002 64.4375ZM71.6564 64.4375C71.0186 64.4245 70.4112 64.162 69.9647 63.7063C69.5182 63.2506 69.2682 62.638 69.2682 62C69.2682 61.3621 69.5182 60.7495 69.9647 60.2938C70.4112 59.8381 71.0186 59.5756 71.6564 59.5625C72.2943 59.5756 72.9016 59.8381 73.3481 60.2938C73.7946 60.7495 74.0447 61.3621 74.0447 62C74.0447 62.638 73.7946 63.2506 73.3481 63.7063C72.9016 64.162 72.2943 64.4245 71.6564 64.4375Z" fill="#F4F4F4"/>
<path d="M69.2188 62C69.2188 62.6465 69.4756 63.2665 69.9327 63.7236C70.3898 64.1807 71.0098 64.4375 71.6563 64.4375C72.3027 64.4375 72.9227 64.1807 73.3798 63.7236C73.837 63.2665 74.0938 62.6465 74.0938 62C74.0938 61.3535 73.837 60.7335 73.3798 60.2764C72.9227 59.8193 72.3027 59.5625 71.6563 59.5625C71.0098 59.5625 70.3898 59.8193 69.9327 60.2764C69.4756 60.7335 69.2188 61.3535 69.2188 62ZM48.9063 62C48.9063 62.6465 49.1631 63.2665 49.6202 63.7236C50.0773 64.1807 50.6973 64.4375 51.3438 64.4375C51.9902 64.4375 52.6102 64.1807 53.0674 63.7236C53.5245 63.2665 53.7813 62.6465 53.7813 62C53.7813 61.3535 53.5245 60.7335 53.0674 60.2764C52.6102 59.8193 51.9902 59.5625 51.3438 59.5625C50.6973 59.5625 50.0773 59.8193 49.6202 60.2764C49.1631 60.7335 48.9063 61.3535 48.9063 62Z" fill="#5457AF"/>
<path d="M82.4831 53.1844C81.3355 50.4574 79.6901 48.0098 77.5929 45.9074C75.5103 43.8172 73.038 42.1558 70.3159 41.0172C67.5229 39.8441 64.5573 39.25 61.5003 39.25H61.3987C58.3214 39.2652 55.3405 39.8746 52.5374 41.073C49.8387 42.2234 47.3895 43.8877 45.3265 45.9734C43.2495 48.0707 41.6194 50.5082 40.4921 53.225C39.3241 56.0383 38.7351 59.0293 38.7503 62.1066C38.7675 65.6332 39.6018 69.1079 41.1878 72.2578V79.9766C41.1878 80.5961 41.4339 81.1903 41.872 81.6283C42.31 82.0664 42.9042 82.3125 43.5237 82.3125H51.2476C54.3975 83.8984 57.8721 84.7328 61.3987 84.75H61.5054C64.5472 84.75 67.4976 84.1609 70.2753 83.0082C72.9836 81.8831 75.4467 80.2411 77.5269 78.1738C79.6241 76.0969 81.2745 73.6695 82.4272 70.9629C83.6257 68.1598 84.2351 65.1789 84.2503 62.1016C84.2655 59.009 83.6663 56.0078 82.4831 53.1844ZM74.8101 75.4266C71.2503 78.9508 66.5276 80.8906 61.5003 80.8906H61.414C58.3519 80.8754 55.3101 80.1137 52.6237 78.6816L52.1972 78.4531H45.0472V71.3031L44.8186 70.8766C43.3866 68.1902 42.6249 65.1484 42.6097 62.0863C42.5894 57.0234 44.5241 52.2703 48.0737 48.6902C51.6183 45.1102 56.3561 43.1297 61.419 43.1094H61.5054C64.0444 43.1094 66.5073 43.602 68.828 44.577C71.0929 45.5266 73.1241 46.8926 74.871 48.6395C76.6128 50.3813 77.9839 52.4176 78.9335 54.6824C79.9187 57.0285 80.4112 59.5168 80.4011 62.0863C80.3706 67.1441 78.3851 71.882 74.8101 75.4266Z" fill="#5457AF"/>
<path d="M59.0625 62C59.0625 62.6465 59.3193 63.2665 59.7765 63.7236C60.2336 64.1807 60.8536 64.4375 61.5 64.4375C62.1465 64.4375 62.7665 64.1807 63.2236 63.7236C63.6807 63.2665 63.9375 62.6465 63.9375 62C63.9375 61.3535 63.6807 60.7335 63.2236 60.2764C62.7665 59.8193 62.1465 59.5625 61.5 59.5625C60.8536 59.5625 60.2336 59.8193 59.7765 60.2764C59.3193 60.7335 59.0625 61.3535 59.0625 62Z" fill="#5457AF"/>
</svg>
