<svg width="124" height="123" viewBox="0 0 124 123" fill="none" xmlns="http://www.w3.org/2000/svg">
<g id="Group 1448">
<circle id="Ellipse 5" cx="62" cy="61.5" r="59" fill="#B6B8FA" stroke="#5457AF" stroke-width="5"/>
<path id="bg" d="M61.2922 52.0883L62.6211 54.6268L63.95 52.0883C65.3715 49.3728 68.27 47.5 71.6284 47.5C76.4149 47.5 80.2422 51.2936 80.2422 55.9097C80.2422 58.1856 79.2253 60.681 77.5094 63.2351C75.8064 65.77 73.5077 68.2253 71.1641 70.3891C68.8268 72.5472 66.4831 74.3805 64.7205 75.6759C63.8534 76.3131 63.13 76.818 62.6211 77.165C62.1122 76.818 61.3888 76.3131 60.5217 75.6759C58.759 74.3805 56.4154 72.5472 54.0781 70.3891C51.7345 68.2253 49.4358 65.77 47.7328 63.2351C46.0169 60.681 45 58.1856 45 55.9097C45 51.2936 48.8273 47.5 53.6138 47.5C56.9722 47.5 59.8707 49.3728 61.2922 52.0883Z" fill="#F4F4F4" stroke="#5457AF" stroke-width="3"/>
</g>
</svg>
