<svg width="124" height="124" viewBox="0 0 124 124" fill="none" xmlns="http://www.w3.org/2000/svg">
<g id="Group 1448">
<circle id="Ellipse 5" cx="62" cy="62" r="59" fill="#B6B8FA" stroke="#5457AF" stroke-width="5"/>
<g id="Vector">
<path d="M62.3906 49.4531C57.4547 49.4531 53.4531 53.4547 53.4531 58.3906C53.4531 63.3266 57.4547 67.3281 62.3906 67.3281C67.3266 67.3281 71.3281 63.3266 71.3281 58.3906C71.3281 53.4547 67.3266 49.4531 62.3906 49.4531ZM66.4125 62.4125C65.885 62.9415 65.2581 63.361 64.5679 63.6469C63.8776 63.9327 63.1377 64.0793 62.3906 64.0781C60.8723 64.0781 59.4453 63.484 58.3687 62.4125C57.8397 61.885 57.4202 61.2581 57.1344 60.5679C56.8485 59.8776 56.702 59.1377 56.7031 58.3906C56.7031 56.8723 57.2973 55.4453 58.3687 54.3687C59.4453 53.2922 60.8723 52.7031 62.3906 52.7031C63.909 52.7031 65.3359 53.2922 66.4125 54.3687C67.4891 55.4453 68.0781 56.8723 68.0781 58.3906C68.0781 59.909 67.4891 61.3359 66.4125 62.4125Z" fill="#5457AF"/>
<path d="M79.7883 50.7785C78.8322 48.574 77.4538 46.578 75.7309 44.9031C74.0022 43.2131 71.9643 41.8718 69.7285 40.9523C67.4027 39.9875 64.9348 39.5 62.3906 39.5C59.8465 39.5 57.3785 39.9875 55.0527 40.9473C52.8031 41.8766 50.7871 43.207 49.0504 44.898C47.3285 46.5739 45.9503 48.5696 44.993 50.7734C44.0027 53.0586 43.5 55.4859 43.5 57.9844C43.5 61.5695 44.3582 65.1395 46.0441 68.5824C47.4 71.35 49.2941 74.0465 51.6809 76.6109C55.7586 80.9883 60.0344 83.6644 61.248 84.3805C61.5925 84.5839 61.9855 84.6909 62.3855 84.6902C62.7816 84.6902 63.1727 84.5887 63.523 84.3805C64.7367 83.6644 69.0125 80.9883 73.0902 76.6109C75.477 74.0516 77.3711 71.35 78.727 68.5824C80.423 65.1445 81.2812 61.5797 81.2812 57.9895C81.2812 55.491 80.7785 53.0637 79.7883 50.7785ZM62.3906 80.7953C59.0441 78.6676 47.1562 70.243 47.1562 57.9895C47.1562 54.0336 48.7355 50.3164 51.6047 47.5133C54.484 44.7051 58.3129 43.1562 62.3906 43.1562C66.4684 43.1562 70.2973 44.7051 73.1766 47.5184C76.0457 50.3164 77.625 54.0336 77.625 57.9895C77.625 70.243 65.7371 78.6676 62.3906 80.7953Z" fill="#5457AF"/>
</g>
<g id="Vector_2">
<path d="M62.3906 49.4531C57.4547 49.4531 53.4531 53.4547 53.4531 58.3906C53.4531 63.3266 57.4547 67.3281 62.3906 67.3281C67.3266 67.3281 71.3281 63.3266 71.3281 58.3906C71.3281 53.4547 67.3266 49.4531 62.3906 49.4531ZM66.4125 62.4125C65.885 62.9415 65.2581 63.361 64.5679 63.6469C63.8776 63.9327 63.1377 64.0793 62.3906 64.0781C60.8723 64.0781 59.4453 63.484 58.3687 62.4125C57.8397 61.885 57.4202 61.2581 57.1344 60.5679C56.8485 59.8776 56.702 59.1377 56.7031 58.3906C56.7031 56.8723 57.2973 55.4453 58.3687 54.3687C59.4453 53.2922 60.8723 52.7031 62.3906 52.7031C63.909 52.7031 65.3359 53.2922 66.4125 54.3687C67.4891 55.4453 68.0781 56.8723 68.0781 58.3906C68.0781 59.909 67.4891 61.3359 66.4125 62.4125Z" fill="#5457AF"/>
<path d="M79.7883 50.7785C78.8322 48.574 77.4538 46.578 75.7309 44.9031C74.0022 43.2131 71.9643 41.8718 69.7285 40.9523C67.4027 39.9875 64.9348 39.5 62.3906 39.5C59.8465 39.5 57.3785 39.9875 55.0527 40.9473C52.8031 41.8766 50.7871 43.207 49.0504 44.898C47.3285 46.5739 45.9503 48.5696 44.993 50.7734C44.0027 53.0586 43.5 55.4859 43.5 57.9844C43.5 61.5695 44.3582 65.1395 46.0441 68.5824C47.4 71.35 49.2941 74.0465 51.6809 76.6109C55.7586 80.9883 60.0344 83.6644 61.248 84.3805C61.5925 84.5839 61.9855 84.6909 62.3855 84.6902C62.7816 84.6902 63.1727 84.5887 63.523 84.3805C64.7367 83.6644 69.0125 80.9883 73.0902 76.6109C75.477 74.0516 77.3711 71.35 78.727 68.5824C80.423 65.1445 81.2812 61.5797 81.2812 57.9895C81.2812 55.491 80.7785 53.0637 79.7883 50.7785ZM62.3906 80.7953C59.0441 78.6676 47.1562 70.243 47.1562 57.9895C47.1562 54.0336 48.7355 50.3164 51.6047 47.5133C54.484 44.7051 58.3129 43.1562 62.3906 43.1562C66.4684 43.1562 70.2973 44.7051 73.1766 47.5184C76.0457 50.3164 77.625 54.0336 77.625 57.9895C77.625 70.243 65.7371 78.6676 62.3906 80.7953Z" fill="#5457AF"/>
<path fill-rule="evenodd" clip-rule="evenodd" d="M62.3906 80.7953C59.0441 78.6676 47.1562 70.243 47.1562 57.9895C47.1562 54.0336 48.7355 50.3164 51.6047 47.5133C54.484 44.7051 58.3129 43.1562 62.3906 43.1562C66.4684 43.1562 70.2973 44.7051 73.1766 47.5184C76.0457 50.3164 77.625 54.0336 77.625 57.9895C77.625 70.243 65.7371 78.6676 62.3906 80.7953ZM53.4531 58.3906C53.4531 53.4547 57.4547 49.4531 62.3906 49.4531C67.3266 49.4531 71.3281 53.4547 71.3281 58.3906C71.3281 63.3266 67.3266 67.3281 62.3906 67.3281C57.4547 67.3281 53.4531 63.3266 53.4531 58.3906Z" fill="#F4F4F4"/>
</g>
</g>
</svg>
