<svg width="124" height="123" viewBox="0 0 124 123" fill="none" xmlns="http://www.w3.org/2000/svg">
<g id="Group 1448">
<circle id="Ellipse 5" cx="62" cy="61.5" r="59" fill="#B6B8FA" stroke="#5457AF" stroke-width="5"/>
<path id="Vector" d="M78.5 42C78.307 42 78.109 42.0355 77.9109 42.1168L48.6406 53.8777H40.3125C39.8656 53.8777 39.5 54.2535 39.5 54.7207V69.9043C39.5 70.3715 39.8656 70.7473 40.3125 70.7473H45.477C45.2891 71.3363 45.1875 71.9609 45.1875 72.5957C45.1875 75.9422 47.9195 78.6641 51.2812 78.6641C54.0945 78.6641 56.466 76.7547 57.1668 74.175L77.916 82.5133C78.1141 82.5895 78.3121 82.6301 78.5051 82.6301C79.3633 82.6301 80.1301 81.909 80.1301 80.9441V43.6859C80.125 42.7211 79.3633 42 78.5 42ZM51.2812 75.023C49.9355 75.023 48.8438 73.9363 48.8438 72.5957C48.8438 72.027 49.0418 71.4836 49.4023 71.052L53.7137 72.7836C53.6121 74.0328 52.5609 75.023 51.2812 75.023ZM76.4688 77.9887L50.0016 67.3551L49.3465 67.091H43.1562V57.534H49.3465L50.0016 57.2699L76.4688 46.6363V77.9887Z" fill="#5457AF"/>
<g id="Vector_2">
<path d="M78.5 42C78.307 42 78.109 42.0355 77.9109 42.1168L48.6406 53.8777H40.3125C39.8656 53.8777 39.5 54.2535 39.5 54.7207V69.9043C39.5 70.3715 39.8656 70.7473 40.3125 70.7473H45.477C45.2891 71.3363 45.1875 71.9609 45.1875 72.5957C45.1875 75.9422 47.9195 78.6641 51.2812 78.6641C54.0945 78.6641 56.466 76.7547 57.1668 74.175L77.916 82.5133C78.1141 82.5895 78.3121 82.6301 78.5051 82.6301C79.3633 82.6301 80.1301 81.909 80.1301 80.9441V43.6859C80.125 42.7211 79.3633 42 78.5 42ZM51.2812 75.023C49.9355 75.023 48.8438 73.9363 48.8438 72.5957C48.8438 72.027 49.0418 71.4836 49.4023 71.052L53.7137 72.7836C53.6121 74.0328 52.5609 75.023 51.2812 75.023ZM76.4688 77.9887L50.0016 67.3551L49.3465 67.091H43.1562V57.534H49.3465L50.0016 57.2699L76.4688 46.6363V77.9887Z" fill="#5457AF"/>
<path d="M76.4688 77.9887L50.0016 67.3551L49.3465 67.091H43.1562V57.534H49.3465L50.0016 57.2699L76.4688 46.6363V77.9887Z" fill="#F4F4F4"/>
</g>
</g>
</svg>
