<svg width="144" height="144" viewBox="0 0 144 144" fill="none" xmlns="http://www.w3.org/2000/svg">
<path d="M60 75L48 90L60 105M84 75L96 90L84 105M84 12V36C84 39.1826 85.2643 42.2348 87.5147 44.4853C89.7652 46.7357 92.8174 48 96 48H120M90 12L36 12C32.8174 12 29.7652 13.2643 27.5147 15.5147C25.2643 17.7652 24 20.8174 24 24V120C24 123.183 25.2643 126.235 27.5147 128.485C29.7652 130.736 32.8174 132 36 132H108C111.183 132 114.235 130.736 116.485 128.485C118.736 126.235 120 123.183 120 120V42L90 12Z" stroke="#FAFAFA" stroke-width="12" stroke-linecap="round" stroke-linejoin="round"/>
</svg>
