<svg width="144" height="144" viewBox="0 0 144 144" fill="none" xmlns="http://www.w3.org/2000/svg">
<path d="M72 30C81 21 88.44 18 99 18C107.752 18 116.146 21.4768 122.335 27.6655C128.523 33.8542 132 42.2479 132 51C132 64.74 122.94 75.24 114 84L72 126L30 84C21 75.3 12 64.8 12 51C12 42.2479 15.4768 33.8542 21.6655 27.6655C27.8542 21.4768 36.2479 18 45 18C55.56 18 63 21 72 30ZM72 30L54.24 47.76C53.0209 48.9702 52.0534 50.4097 51.3931 51.9956C50.7329 53.5814 50.3929 55.2822 50.3929 57C50.3929 58.7178 50.7329 60.4186 51.3931 62.0044C52.0534 63.5903 53.0209 65.0298 54.24 66.24C59.16 71.16 67.02 71.34 72.24 66.66L84.66 55.26C87.7731 52.4352 91.8263 50.8703 96.03 50.8703C100.234 50.8703 104.287 52.4352 107.4 55.26L125.16 71.22M108 90L96 78M90 108L78 96" stroke="#FAFAFA" stroke-width="12" stroke-linecap="round" stroke-linejoin="round"/>
</svg>
