<svg width="144" height="144" viewBox="0 0 144 144" fill="none" xmlns="http://www.w3.org/2000/svg">
<path d="M52.8 120V95.4L64.2 96.6C67.5188 96.4156 70.6596 95.0395 73.045 92.7246C75.4304 90.4098 76.9001 87.3118 77.184 84V49.8C77.2238 41.156 73.8281 32.8503 67.7441 26.71C61.66 20.5697 53.3859 17.0977 44.742 17.058C36.0981 17.0182 27.7924 20.4138 21.652 26.4979C15.5117 32.5819 12.0398 40.856 12 49.5C12 66.3 15.936 67.824 18 76.8C19.3949 82.2208 19.4546 87.899 18.174 93.348L12 120M118.8 106.8C127.235 98.3641 131.975 86.9241 131.978 74.9947C131.982 63.0652 127.248 51.6226 118.818 43.182M102 90C103.963 88.0373 105.518 85.705 106.573 83.1378C107.629 80.5706 108.166 77.8195 108.152 75.0437C108.138 72.2678 107.574 69.5223 106.492 66.9658C105.41 64.4094 103.833 62.0928 101.85 60.15" stroke="#FAFAFA" stroke-width="12" stroke-linecap="round" stroke-linejoin="round"/>
</svg>
