<svg width="144" height="144" viewBox="0 0 144 144" fill="none" xmlns="http://www.w3.org/2000/svg">
<path d="M96 126V114C96 107.635 93.4714 101.53 88.9706 97.0294C84.4697 92.5286 78.3652 90 72 90H36C29.6348 90 23.5303 92.5286 19.0294 97.0294C14.5286 101.53 12 107.635 12 114V126M132 126V114C131.996 108.682 130.226 103.517 126.968 99.3139C123.71 95.1111 119.149 92.1094 114 90.78M96 18.78C101.162 20.1018 105.738 23.1042 109.006 27.3139C112.273 31.5235 114.047 36.701 114.047 42.03C114.047 47.359 112.273 52.5365 109.006 56.7461C105.738 60.9558 101.162 63.9582 96 65.28M78 42C78 55.2548 67.2548 66 54 66C40.7452 66 30 55.2548 30 42C30 28.7452 40.7452 18 54 18C67.2548 18 78 28.7452 78 42Z" stroke="#FAFAFA" stroke-width="12" stroke-linecap="round" stroke-linejoin="round"/>
</svg>
