<svg width="73" height="73" viewBox="0 0 73 73" fill="none" xmlns="http://www.w3.org/2000/svg">
<path d="M36.0828 15.3202C40.5932 10.8099 44.3217 9.3064 49.6139 9.3064C54 9.3064 58.2066 11.0488 61.308 14.1503C64.4095 17.2517 66.1519 21.4583 66.1519 25.8444C66.1519 32.7302 61.6115 37.9923 57.1312 42.3824L36.0828 63.4308L15.0344 42.3824C10.5241 38.0224 6.01369 32.7603 6.01369 25.8444C6.01369 21.4583 7.75608 17.2517 10.8576 14.1503C13.959 11.0488 18.1655 9.3064 22.5517 9.3064C27.8439 9.3064 31.5724 10.8099 36.0828 15.3202ZM36.0828 15.3202L27.1823 24.2207C26.5714 24.8272 26.0865 25.5486 25.7556 26.3433C25.4247 27.1381 25.2544 27.9904 25.2544 28.8513C25.2544 29.7122 25.4247 30.5646 25.7556 31.3593C26.0865 32.154 26.5714 32.8754 27.1823 33.482C29.648 35.9476 33.5871 36.0378 36.2031 33.6924L42.4274 27.9793C43.9875 26.5636 46.0188 25.7794 48.1255 25.7794C50.2322 25.7794 52.2634 26.5636 53.8236 27.9793L62.724 35.9777M54.1243 45.3893L48.1104 39.3755M45.1035 54.4101L39.0897 48.3962" stroke="#FAFAFA" stroke-width="6.01382" stroke-linecap="round" stroke-linejoin="round"/>
</svg>
